<svg width="80" height="80" viewBox="0 0 200 200" xmlns="http://www.w3.org/2000/svg" fill="none">
    <!-- Background Circle -->
    <circle cx="100" cy="100" r="90" fill="#367c2b" stroke="#145214" stroke-width="5"></circle>
    
    <!-- Tractor Icon -->
    <g transform="rotate(-5, 100, 100)">
    <rect x="55" y="65" width="80" height="34" fill="#EEBB00" stroke="#FFD700" stroke-width="3" rx="8" ry="8"></rect>
</g>
    <rect x="100" y="40" width="38" height="40" fill="#EEBB00" stroke="#FFD700" stroke-width="3" rx="3"></rect><rect x="106" y="44" width="25" height="22" fill="#CCBB44" stroke="#BBAA33" stroke-width="3"></rect><circle cx="64" cy="100" r="15" fill="#333" stroke="#222" stroke-width="12"></circle>
    <circle cx="125" cy="96" r="20" fill="#333" stroke="#222" stroke-width="12"></circle>
<g transform="rotate(90, 100, 100) translate(32, 10)">
    <path fill="white" stroke="#000000" stroke-linecap="round" stroke-linejoin="round" stroke-width="0" d="M40.4374,22.8912 c-0.1422-2.9005,2.0938-5.3671,4.9942-5.5093c1.5263-0.0748,3.0097,0.518,4.0639,1.6242c1.2318-1.9622,3.8211-2.5544,5.7833-1.3226 c1.1742,0.7371,1.9084,2.0066,1.9616,3.392c0.0071-0.0003,0.0136-0.0026,0.0207-0.0029c2.3294-0.1067,4.3043,1.6951,4.411,4.0245 s-1.6951,4.3043-4.0245,4.411c-0.0015,0.0001-0.0029,0.0001-0.0044,0.0002c-0.0685,0.0031-0.1329-0.011-0.2007-0.0109 c0.6791,1.5807-0.0519,3.4127-1.6326,4.0917c-0.0428,0.0184-0.086,0.0358-0.1296,0.0523c0.0086,0.063,0.0422,0.116,0.0451,0.1806 c0.0538,1.1647-0.8468,2.1524-2.0115,2.2062s-2.1524-0.8468-2.2062-2.0115c-0.0001-0.0012-0.0001-0.0024-0.0002-0.0036 c-0.0182-0.514,0.1543-1.0167,0.4842-1.4113c-0.2072-0.2833-0.3655-0.5992-0.4685-0.9347c-1.5768,0.7263-3.4438,0.0368-4.17-1.54 c-0.1105-0.2398-0.1903-0.4926-0.2375-0.7523c-1.9253,1.2922-4.5336,0.779-5.8259-1.1463 c-0.7307-1.0887-0.9109-2.4563-0.487-3.6971C40.5934,24.008,40.4699,23.4541,40.4374,22.8912z"></path> </g>
    
    <!-- Company Name Placeholder -->
        <text x="100" y="170" font-family="Arial, sans-serif" font-size="20" fill="#FFD700" text-anchor="middle" font-weight="bold">
        <textPath href="#curve" startOffset="50%">Tractor eShop</textPath></text>
    <path id="curve" d="M 10 305 A 80 60 -5 0 1 170 150" fill="transparent"></path>
</svg>